<svg width="256" height="50" viewBox="0 0 256 50" fill="none" xmlns="http://www.w3.org/2000/svg">
<g clip-path="url(#clip0)">
<path d="M22.5 0L0 12.273V37.086L22.5 49.091L45 37.086V12.406C45 12.406 22.5 0 22.5 0ZM20.455 43.364L6.824 36.092L15.417 30.363C17.626 28.892 15.282 25.538 12.874 27.141L4.091 32.995V16.834L20.455 25.758V43.364ZM6.408 13.439L20.454 5.777V14.83C20.454 17.536 24.545 17.538 24.545 14.83V5.799L38.679 13.594L22.51 22.222L6.408 13.439ZM24.545 25.773L40.909 17.041V32.996L32.189 27.183C29.773 25.577 27.437 28.932 29.642 30.403L38.176 36.091L24.545 43.365C24.545 43.365 24.545 25.773 24.545 25.773Z" fill="white"/>
<path d="M69.368 13.46C71.6267 13.46 73.6507 13.9587 75.44 14.956C77.2293 15.9533 78.6227 17.3467 79.62 19.136C80.6467 20.9253 81.16 22.9933 81.16 25.34C81.16 27.6867 80.6467 29.7693 79.62 31.588C78.6227 33.3773 77.2293 34.7707 75.44 35.768C73.6507 36.7653 71.6267 37.264 69.368 37.264C67.696 37.264 66.156 36.9413 64.748 36.296C63.3693 35.6507 62.196 34.712 61.228 33.48V45.536H57.004V13.68H61.052V17.376C61.9907 16.0853 63.1787 15.1173 64.616 14.472C66.0533 13.7973 67.6373 13.46 69.368 13.46ZM69.016 33.568C70.512 33.568 71.8467 33.2307 73.02 32.556C74.2227 31.852 75.1613 30.884 75.836 29.652C76.54 28.3907 76.892 26.9533 76.892 25.34C76.892 23.7267 76.54 22.304 75.836 21.072C75.1613 19.8107 74.2227 18.8427 73.02 18.168C71.8467 17.4933 70.512 17.156 69.016 17.156C67.5493 17.156 66.2147 17.508 65.012 18.212C63.8387 18.8867 62.9 19.84 62.196 21.072C61.5213 22.304 61.184 23.7267 61.184 25.34C61.184 26.9533 61.5213 28.3907 62.196 29.652C62.8707 30.884 63.8093 31.852 65.012 32.556C66.2147 33.2307 67.5493 33.568 69.016 33.568Z" fill="white"/>
<path d="M86.9962 13.68H91.2202V37H86.9962V13.68ZM89.1082 9.192C88.2869 9.192 87.5975 8.928 87.0402 8.4C86.5122 7.872 86.2482 7.22666 86.2482 6.464C86.2482 5.70133 86.5122 5.056 87.0402 4.528C87.5975 3.97066 88.2869 3.692 89.1082 3.692C89.9295 3.692 90.6042 3.956 91.1322 4.484C91.6895 4.98266 91.9682 5.61333 91.9682 6.376C91.9682 7.168 91.6895 7.84266 91.1322 8.4C90.6042 8.928 89.9295 9.192 89.1082 9.192Z" fill="white"/>
<path d="M109.449 37.264C107.073 37.264 104.947 36.7507 103.069 35.724C101.221 34.6973 99.7692 33.2893 98.7132 31.5C97.6572 29.6813 97.1292 27.628 97.1292 25.34C97.1292 23.052 97.6572 21.0133 98.7132 19.224C99.7692 17.4053 101.221 15.9973 103.069 15C104.947 13.9733 107.073 13.46 109.449 13.46C111.561 13.46 113.439 13.8853 115.081 14.736C116.753 15.5867 118.044 16.8187 118.953 18.432L115.741 20.5C115.008 19.3853 114.099 18.5493 113.013 17.992C111.928 17.4347 110.725 17.156 109.405 17.156C107.88 17.156 106.501 17.4933 105.269 18.168C104.067 18.8427 103.113 19.8107 102.409 21.072C101.735 22.304 101.397 23.7267 101.397 25.34C101.397 26.9827 101.735 28.4347 102.409 29.696C103.113 30.928 104.067 31.8813 105.269 32.556C106.501 33.2307 107.88 33.568 109.405 33.568C110.725 33.568 111.928 33.2893 113.013 32.732C114.099 32.1747 115.008 31.3387 115.741 30.224L118.953 32.248C118.044 33.8613 116.753 35.108 115.081 35.988C113.439 36.8387 111.561 37.264 109.449 37.264Z" fill="white"/>
<path d="M132.914 13.46C136.141 13.46 138.605 14.252 140.306 15.836C142.037 17.42 142.902 19.7813 142.902 22.92V37H138.898V33.92C138.194 35.0053 137.182 35.8413 135.862 36.428C134.571 36.9853 133.031 37.264 131.242 37.264C128.631 37.264 126.534 36.6333 124.95 35.372C123.395 34.1107 122.618 32.4533 122.618 30.4C122.618 28.3467 123.366 26.704 124.862 25.472C126.358 24.2107 128.734 23.58 131.99 23.58H138.678V22.744C138.678 20.9253 138.15 19.532 137.094 18.564C136.038 17.596 134.483 17.112 132.43 17.112C131.051 17.112 129.702 17.3467 128.382 17.816C127.062 18.256 125.947 18.8573 125.038 19.62L123.278 16.452C124.481 15.484 125.918 14.7507 127.59 14.252C129.262 13.724 131.037 13.46 132.914 13.46ZM131.946 34.008C133.559 34.008 134.953 33.656 136.126 32.952C137.299 32.2187 138.15 31.192 138.678 29.872V26.616H132.166C128.587 26.616 126.798 27.8187 126.798 30.224C126.798 31.3973 127.253 32.3213 128.162 32.996C129.071 33.6707 130.333 34.008 131.946 34.008Z" fill="white"/>
<path d="M150.719 4.352H154.943V37H150.719V4.352Z" fill="white"/>
<path d="M171.5 13.46C174.727 13.46 177.191 14.252 178.892 15.836C180.623 17.42 181.488 19.7813 181.488 22.92V37H177.484V33.92C176.78 35.0053 175.768 35.8413 174.448 36.428C173.157 36.9853 171.617 37.264 169.828 37.264C167.217 37.264 165.12 36.6333 163.536 35.372C161.981 34.1107 161.204 32.4533 161.204 30.4C161.204 28.3467 161.952 26.704 163.448 25.472C164.944 24.2107 167.32 23.58 170.576 23.58H177.264V22.744C177.264 20.9253 176.736 19.532 175.68 18.564C174.624 17.596 173.069 17.112 171.016 17.112C169.637 17.112 168.288 17.3467 166.968 17.816C165.648 18.256 164.533 18.8573 163.624 19.62L161.864 16.452C163.067 15.484 164.504 14.7507 166.176 14.252C167.848 13.724 169.623 13.46 171.5 13.46ZM170.532 34.008C172.145 34.008 173.539 33.656 174.712 32.952C175.885 32.2187 176.736 31.192 177.264 29.872V26.616H170.752C167.173 26.616 165.384 27.8187 165.384 30.224C165.384 31.3973 165.839 32.3213 166.748 32.996C167.657 33.6707 168.919 34.008 170.532 34.008Z" fill="white"/>
<path d="M201.669 13.46C203.927 13.46 205.951 13.9587 207.741 14.956C209.53 15.9533 210.923 17.3467 211.921 19.136C212.947 20.9253 213.461 22.9933 213.461 25.34C213.461 27.6867 212.947 29.7693 211.921 31.588C210.923 33.3773 209.53 34.7707 207.741 35.768C205.951 36.7653 203.927 37.264 201.669 37.264C199.938 37.264 198.354 36.9267 196.917 36.252C195.479 35.5773 194.291 34.5947 193.353 33.304V37H189.305V4.352H193.529V17.2C194.467 15.968 195.641 15.044 197.049 14.428C198.457 13.7827 199.997 13.46 201.669 13.46ZM201.317 33.568C202.813 33.568 204.147 33.2307 205.321 32.556C206.523 31.852 207.462 30.884 208.137 29.652C208.841 28.3907 209.193 26.9533 209.193 25.34C209.193 23.7267 208.841 22.304 208.137 21.072C207.462 19.8107 206.523 18.8427 205.321 18.168C204.147 17.4933 202.813 17.156 201.317 17.156C199.85 17.156 198.515 17.4933 197.313 18.168C196.11 18.8427 195.171 19.8107 194.497 21.072C193.822 22.304 193.485 23.7267 193.485 25.34C193.485 26.9533 193.822 28.3907 194.497 29.652C195.171 30.884 196.11 31.852 197.313 32.556C198.515 33.2307 199.85 33.568 201.317 33.568Z" fill="white"/>
<path d="M225.985 37.264C224.078 37.264 222.245 37.0147 220.485 36.516C218.725 35.988 217.346 35.328 216.349 34.536L218.109 31.192C219.136 31.9253 220.382 32.512 221.849 32.952C223.316 33.392 224.797 33.612 226.293 33.612C229.989 33.612 231.837 32.556 231.837 30.444C231.837 29.74 231.588 29.1827 231.089 28.772C230.59 28.3613 229.96 28.068 229.197 27.892C228.464 27.6867 227.408 27.4667 226.029 27.232C224.152 26.9387 222.612 26.6013 221.409 26.22C220.236 25.8387 219.224 25.1933 218.373 24.284C217.522 23.3747 217.097 22.0987 217.097 20.456C217.097 18.344 217.977 16.6573 219.737 15.396C221.497 14.1053 223.858 13.46 226.821 13.46C228.376 13.46 229.93 13.6507 231.485 14.032C233.04 14.4133 234.316 14.9267 235.313 15.572L233.509 18.916C231.602 17.684 229.358 17.068 226.777 17.068C224.988 17.068 223.624 17.3613 222.685 17.948C221.746 18.5347 221.277 19.312 221.277 20.28C221.277 21.0427 221.541 21.644 222.069 22.084C222.597 22.524 223.242 22.8467 224.005 23.052C224.797 23.2573 225.897 23.492 227.305 23.756C229.182 24.0787 230.693 24.4307 231.837 24.812C233.01 25.164 234.008 25.78 234.829 26.66C235.65 27.54 236.061 28.772 236.061 30.356C236.061 32.468 235.152 34.1547 233.333 35.416C231.544 36.648 229.094 37.264 225.985 37.264Z" fill="white"/>
</g>
<defs>
<clipPath id="clip0">
<rect width="255.566" height="49.091" fill="white"/>
</clipPath>
</defs>
</svg>
